<mxfile host="app.diagrams.net" modified="2023-11-09T16:36:58.361Z" agent="Mozilla/5.0 (Windows NT 10.0; Win64; x64) AppleWebKit/537.36 (KHTML, like Gecko) Chrome/119.0.0.0 Safari/537.36" version="22.1.0" etag="A4TLZ_yfiS9dGXTaC7pS" type="github">
  <diagram name="Page-1" id="2-16rIfg49Qy5ggP7y6m">
    <mxGraphModel>
      <root>
        <mxCell id="0" />
        <mxCell id="1" parent="0" />
      </root>
    </mxGraphModel>
  </diagram>
</mxfile>
